<svg xmlns="http://www.w3.org/2000/svg" viewBox="0 0 600 580">
    <defs>
        <style>.cls-1{fill:none;}.cls-2{fill:#fff;}</style>
    </defs>
    <g id="Layer_2" data-name="Layer 2">
        <g id="Layer_1-2" data-name="Layer 1">
            <path class="cls-1" d="M300,20a340.34,340.34,0,0,1,50.09,
            4.47A282.11,282.11,0,0,0,300,20Z"/>
            <path class="cls-1" d="M64.64,148.28a280.16,280.16,0,0,
            0,0,303.48C10.44,360.8,10.44,239.25,64.64,148.28Z"/>
            <path class="cls-1" d="M250.73,24.32A341.18,341.18,0,0,1,
            300,20,281.62,281.62,0,0,0,250.73,24.32Z"/>
            <path class="cls-1" d="M0,0V498H99.65a261.16,261.16,0,0,
            1-35-46.24,280.16,280.16,0,0,1,0-303.48C101.48,86.44,163.37,
            38.74,250.31,24.4l.29,0,.13,0a283,283,0,0,1,99.36.15c86.68,
            14.42,148.41,62,185.2,123.71a280.13,280.13,0,0,1,0,303.6,260.54,
            260.54,0,0,1-35,46.22H600V0Z"/>
            <path class="cls-1" d="M535.32,451.78a280.13,280.13,0,0,0,
            0-303.6C589.57,239.17,589.57,360.79,535.32,451.78Z"/>
            <path class="cls-1" d="M250.31,24.4l.29,0Z"/>
            <path d="M250.6,24.35l.13,0Z"/>
            <path d="M250.31,24.4c-86.94,14.34-148.83,
            62-185.67,123.88A280.14,280.14,0,0,1,250.31,24.4Z"/>
            <path d="M498.26,497.71,498,498h2.37a260.54,260.54,0,0,
            0,35-46.22A281,281,0,0,1,498.26,497.71Z"/>
            <path d="M101.74,497.71a281.23,281.23,0,0,
            1-37.08-45.95,261.16,261.16,0,0,0,35,46.24H102Z"/>
            <path d="M300,345A115,115,0,1,1,415,230,115,115,0,0,
            1,300,345c95.15,0,175.14,64.82,198.26,152.71a281,281,
            0,0,0,37.06-45.93c54.25-91,54.25-212.61,0-303.6A280.18,
            280.18,0,0,0,350.09,24.47,340.34,340.34,0,0,0,300,
            20a341.18,341.18,0,0,0-49.27,4.32l-.13,0-.29,0A280.14,
            280.14,0,0,0,64.64,148.28c-54.2,91-54.2,212.52,0,
            303.48a281.23,281.23,0,0,0,37.08,45.95C124.86,409.82,
            204.85,345,300,345Z"/>
            <path d="M535.29,148.18C498.5,86.49,436.77,
            38.89,350.09,24.47A280.18,280.18,0,0,1,535.29,148.18Z"/>
            <circle class="cls-2" cx="300" cy="230" r="115"/>
            <path class="cls-2" d="M300,580a279.15,279.15,0,0,0,
            198-82H102A279.15,279.15,0,0,0,300,580Z"/>
            <path class="cls-2" d="M498.26,497.71C475.14,409.82,
            395.15,345,300,345S124.86,409.82,101.74,497.71l.28.29H498Z"/>
        </g>
    </g>
</svg>